<svg id="visual" viewBox="0 0 1920 1080" width="1920" height="1080" xmlns="http://www.w3.org/2000/svg" xmlns:xlink="http://www.w3.org/1999/xlink" version="1.1"><rect x="0" y="0" width="1920" height="1080" fill="none"></rect><path d="M0 643L53.3 647.8C106.7 652.7 213.3 662.3 320 658C426.7 653.7 533.3 635.3 640 619C746.7 602.7 853.3 588.3 960 585.8C1066.7 583.3 1173.3 592.7 1280 592.8C1386.7 593 1493.3 584 1600 602C1706.7 620 1813.3 665 1866.7 687.5L1920 710L1920 1081L1866.7 1081C1813.3 1081 1706.7 1081 1600 1081C1493.3 1081 1386.7 1081 1280 1081C1173.3 1081 1066.7 1081 960 1081C853.3 1081 746.7 1081 640 1081C533.3 1081 426.7 1081 320 1081C213.3 1081 106.7 1081 53.3 1081L0 1081Z" fill="#8c8db9"></path><path d="M0 742L53.3 748.7C106.7 755.3 213.3 768.7 320 769.8C426.7 771 533.3 760 640 741.5C746.7 723 853.3 697 960 682.5C1066.7 668 1173.3 665 1280 681C1386.7 697 1493.3 732 1600 733.5C1706.7 735 1813.3 703 1866.7 687L1920 671L1920 1081L1866.7 1081C1813.3 1081 1706.7 1081 1600 1081C1493.3 1081 1386.7 1081 1280 1081C1173.3 1081 1066.7 1081 960 1081C853.3 1081 746.7 1081 640 1081C533.3 1081 426.7 1081 320 1081C213.3 1081 106.7 1081 53.3 1081L0 1081Z" fill="#797bb2"></path><path d="M0 895L53.3 884.3C106.7 873.7 213.3 852.3 320 831.2C426.7 810 533.3 789 640 794.3C746.7 799.7 853.3 831.3 960 840.7C1066.7 850 1173.3 837 1280 827C1386.7 817 1493.3 810 1600 825C1706.7 840 1813.3 877 1866.7 895.5L1920 914L1920 1081L1866.7 1081C1813.3 1081 1706.7 1081 1600 1081C1493.3 1081 1386.7 1081 1280 1081C1173.3 1081 1066.7 1081 960 1081C853.3 1081 746.7 1081 640 1081C533.3 1081 426.7 1081 320 1081C213.3 1081 106.7 1081 53.3 1081L0 1081Z" fill="#6669aa"></path><path d="M0 928L53.3 937.3C106.7 946.7 213.3 965.3 320 971.5C426.7 977.7 533.3 971.3 640 960.8C746.7 950.3 853.3 935.7 960 941.2C1066.7 946.7 1173.3 972.3 1280 974.5C1386.7 976.7 1493.3 955.3 1600 948.8C1706.7 942.3 1813.3 950.7 1866.7 954.8L1920 959L1920 1081L1866.7 1081C1813.3 1081 1706.7 1081 1600 1081C1493.3 1081 1386.7 1081 1280 1081C1173.3 1081 1066.7 1081 960 1081C853.3 1081 746.7 1081 640 1081C533.3 1081 426.7 1081 320 1081C213.3 1081 106.7 1081 53.3 1081L0 1081Z" fill="#5257a2"></path></svg>